<svg version="1.1" xmlns="http://www.w3.org/2000/svg" xmlns:xlink="http://www.w3.org/1999/xlink" width="128px" height="128px" viewBox="0,0,256,256"><g fill-opacity="0" fill="#ffffff" fill-rule="nonzero" stroke="none" stroke-width="1" stroke-linecap="butt" stroke-linejoin="miter" stroke-miterlimit="10" stroke-dasharray="" stroke-dashoffset="0" font-family="none" font-weight="none" font-size="none" text-anchor="none" style="mix-blend-mode: normal"><path d="M0,256v-256h256v256z" id="bgRectangle"></path></g><g fill-opacity="0" fill="#ffffff" fill-rule="nonzero" stroke="none" stroke-width="1" stroke-linecap="butt" stroke-linejoin="miter" stroke-miterlimit="10" stroke-dasharray="" stroke-dashoffset="0" font-family="none" font-weight="none" font-size="none" text-anchor="none" style="mix-blend-mode: normal"><path d="M64,256c-35.34622,0 -64,-28.65378 -64,-64v-128c0,-35.34622 28.65378,-64 64,-64h128c35.34622,0 64,28.65378 64,64v128c0,35.34622 -28.65378,64 -64,64z" id="shape"></path></g><g fill-opacity="0" fill="#ffbb53" fill-rule="nonzero" stroke-opacity="0" stroke="#ffbb53" stroke-width="1" stroke-linecap="butt" stroke-linejoin="round" stroke-miterlimit="10" stroke-dasharray="" stroke-dashoffset="0" font-family="none" font-weight="none" font-size="none" text-anchor="none" style="mix-blend-mode: normal"><path transform="scale(2,2)" d="M122.5,78c0,5.1 -3.2,9.5 -7.8,11.2c2.3,2.2 3.8,5.3 3.8,8.8c0,6 -4.4,11 -10.1,11.9c1.3,1.6 2.1,3.8 2.1,6.1c0,5.5 -4.5,10 -10,10h-39.1c-7.5,0 -14.8,-2.1 -21.2,-6v6h-34.7v-71.9h34.7v2.7l3.1,-2.5c9.4,-7.4 16.4,-17.3 20.2,-28.6v-18.7c0,-2.8 2.2,-5 5,-5c8.8,0 16,7.2 16,16v27c0,1.7 1.3,3 3,3h24c6.1,0 11,4.9 11,11c0,3.8 -2,7.2 -5,9.2c3,2.2 5,5.8 5,9.8z" id="strokeMainSVG"></path></g><g fill="none" fill-rule="nonzero" stroke="none" stroke-width="1" stroke-linecap="butt" stroke-linejoin="miter" stroke-miterlimit="10" stroke-dasharray="" stroke-dashoffset="0" font-family="none" font-weight="none" font-size="none" text-anchor="none" style="mix-blend-mode: normal"><g transform="scale(2,2)"><g fill-opacity="0" fill="#000000" font-family="Inter, apple-system, BlinkMacSystemFont, &quot;Helvetica Neue&quot;, &quot;Segoe UI&quot;, &quot;Fira Sans&quot;, Roboto, Oxygen, Ubuntu, &quot;Droid Sans&quot;, Arial, sans-serif" font-weight="400" font-size="16" text-anchor="start"></g><g fill="#ffffff"><path d="M117.5,68.2c3,-2 5,-5.4 5,-9.2c0,-6.1 -4.9,-11 -11,-11h-24c-1.7,0 -3,-1.3 -3,-3v-27c0,-8.8 -7.2,-16 -16,-16c-2.8,0 -5,2.2 -5,5v18.7c-3.8,11.3 -10.8,21.2 -20.2,28.6l-3.1,2.5v-2.7h-34.7v71.9h34.7v-6c6.4,3.9 13.7,6 21.2,6h39.1c5.5,0 10,-4.5 10,-10c0,-2.3 -0.8,-4.5 -2.1,-6.1c5.7,-0.9 10.1,-5.9 10.1,-11.9c0,-3.5 -1.5,-6.6 -3.8,-8.8c4.6,-1.7 7.8,-6.1 7.8,-11.2c0,-4 -2,-7.6 -5,-9.8zM36.2,122h-26.7v-63.9h26.7zM110.5,86c0,0 -3.3,0 -4,0v4c4.4,0 8,3.6 8,8c0,4.4 -3.6,8 -8,8h-6v4c3.3,0 6,2.7 6,6c0,3.3 -2.7,6 -6,6h-39.1c-7.6,0 -15,-2.4 -21.2,-6.8v-53.3l5.6,-4.4c10.1,-8 17.5,-18.6 21.6,-30.8l0.1,-0.3v-19.4c0,-0.6 0.4,-1 1,-1c6.6,0 12,5.4 12,12v27c0,3.9 3.1,7 7,7h24c3.9,0 7,3.1 7,7c0,3.9 -3.1,7 -7,7h-1v4c4.4,0 8,3.6 8,8c0,4.4 -3.6,8 -8,8z"></path><circle cx="22.9" cy="115.1" r="3"></circle></g></g></g></svg>